<svg xmlns="http://www.w3.org/2000/svg" width="700" height="480" viewBox="0 0 700 480">
  <defs>
    <linearGradient id="bgMain" x1="0%" y1="0%" x2="100%" y2="100%">
      <stop offset="0%" style="stop-color:#0c1220"/>
      <stop offset="50%" style="stop-color:#1a365d"/>
      <stop offset="100%" style="stop-color:#1e3a5f"/>
    </linearGradient>
    <linearGradient id="accentGrad" x1="0%" y1="0%" x2="100%" y2="100%">
      <stop offset="0%" style="stop-color:#3b82f6"/>
      <stop offset="100%" style="stop-color:#06b6d4"/>
    </linearGradient>
    <linearGradient id="glassCard" x1="0%" y1="0%" x2="0%" y2="100%">
      <stop offset="0%" style="stop-color:rgba(255,255,255,0.12)"/>
      <stop offset="100%" style="stop-color:rgba(255,255,255,0.04)"/>
    </linearGradient>
    <filter id="glow">
      <feGaussianBlur stdDeviation="8" result="coloredBlur"/>
      <feMerge><feMergeNode in="coloredBlur"/><feMergeNode in="SourceGraphic"/></feMerge>
    </filter>
    <filter id="softShadow">
      <feDropShadow dx="0" dy="4" stdDeviation="6" flood-color="rgba(0,0,0,0.3)"/>
    </filter>
    <clipPath id="roundClip"><rect width="700" height="480" rx="20"/></clipPath>
  </defs>

  <!-- Background -->
  <g clip-path="url(#roundClip)">
    <rect width="700" height="480" fill="url(#bgMain)"/>

    <!-- Ambient glow orbs -->
    <circle cx="100" cy="80" r="120" fill="#3b82f6" opacity="0.06"/>
    <circle cx="600" cy="400" r="140" fill="#06b6d4" opacity="0.05"/>
    <circle cx="350" cy="240" r="200" fill="#3b82f6" opacity="0.03"/>

    <!-- Dot grid pattern -->
    <circle cx="40" cy="40" r="0.8" fill="rgba(255,255,255,0.06)"/><circle cx="40" cy="80" r="0.8" fill="rgba(255,255,255,0.06)"/><circle cx="40" cy="120" r="0.8" fill="rgba(255,255,255,0.06)"/><circle cx="40" cy="160" r="0.8" fill="rgba(255,255,255,0.06)"/><circle cx="40" cy="200" r="0.8" fill="rgba(255,255,255,0.06)"/><circle cx="40" cy="240" r="0.8" fill="rgba(255,255,255,0.06)"/><circle cx="40" cy="280" r="0.8" fill="rgba(255,255,255,0.06)"/><circle cx="40" cy="320" r="0.8" fill="rgba(255,255,255,0.06)"/><circle cx="40" cy="360" r="0.8" fill="rgba(255,255,255,0.06)"/><circle cx="40" cy="400" r="0.8" fill="rgba(255,255,255,0.06)"/><circle cx="40" cy="440" r="0.8" fill="rgba(255,255,255,0.06)"/><circle cx="80" cy="40" r="0.8" fill="rgba(255,255,255,0.06)"/><circle cx="80" cy="80" r="0.8" fill="rgba(255,255,255,0.06)"/><circle cx="80" cy="120" r="0.8" fill="rgba(255,255,255,0.06)"/><circle cx="80" cy="160" r="0.8" fill="rgba(255,255,255,0.06)"/><circle cx="80" cy="200" r="0.8" fill="rgba(255,255,255,0.06)"/><circle cx="80" cy="240" r="0.8" fill="rgba(255,255,255,0.06)"/><circle cx="80" cy="280" r="0.8" fill="rgba(255,255,255,0.06)"/><circle cx="80" cy="320" r="0.8" fill="rgba(255,255,255,0.06)"/><circle cx="80" cy="360" r="0.8" fill="rgba(255,255,255,0.06)"/><circle cx="80" cy="400" r="0.8" fill="rgba(255,255,255,0.06)"/><circle cx="80" cy="440" r="0.8" fill="rgba(255,255,255,0.06)"/><circle cx="120" cy="40" r="0.8" fill="rgba(255,255,255,0.06)"/><circle cx="120" cy="80" r="0.8" fill="rgba(255,255,255,0.06)"/><circle cx="120" cy="120" r="0.8" fill="rgba(255,255,255,0.06)"/><circle cx="120" cy="160" r="0.8" fill="rgba(255,255,255,0.06)"/><circle cx="120" cy="200" r="0.8" fill="rgba(255,255,255,0.06)"/><circle cx="120" cy="240" r="0.8" fill="rgba(255,255,255,0.06)"/><circle cx="120" cy="280" r="0.8" fill="rgba(255,255,255,0.06)"/><circle cx="120" cy="320" r="0.8" fill="rgba(255,255,255,0.06)"/><circle cx="120" cy="360" r="0.8" fill="rgba(255,255,255,0.06)"/><circle cx="120" cy="400" r="0.8" fill="rgba(255,255,255,0.06)"/><circle cx="120" cy="440" r="0.8" fill="rgba(255,255,255,0.06)"/><circle cx="160" cy="40" r="0.8" fill="rgba(255,255,255,0.06)"/><circle cx="160" cy="80" r="0.8" fill="rgba(255,255,255,0.06)"/><circle cx="160" cy="120" r="0.8" fill="rgba(255,255,255,0.06)"/><circle cx="160" cy="160" r="0.8" fill="rgba(255,255,255,0.06)"/><circle cx="160" cy="200" r="0.8" fill="rgba(255,255,255,0.06)"/><circle cx="160" cy="240" r="0.8" fill="rgba(255,255,255,0.06)"/><circle cx="160" cy="280" r="0.8" fill="rgba(255,255,255,0.06)"/><circle cx="160" cy="320" r="0.8" fill="rgba(255,255,255,0.06)"/><circle cx="160" cy="360" r="0.8" fill="rgba(255,255,255,0.06)"/><circle cx="160" cy="400" r="0.8" fill="rgba(255,255,255,0.06)"/><circle cx="160" cy="440" r="0.8" fill="rgba(255,255,255,0.06)"/><circle cx="200" cy="40" r="0.8" fill="rgba(255,255,255,0.06)"/><circle cx="200" cy="80" r="0.8" fill="rgba(255,255,255,0.06)"/><circle cx="200" cy="120" r="0.8" fill="rgba(255,255,255,0.06)"/><circle cx="200" cy="160" r="0.8" fill="rgba(255,255,255,0.06)"/><circle cx="200" cy="200" r="0.8" fill="rgba(255,255,255,0.06)"/><circle cx="200" cy="240" r="0.8" fill="rgba(255,255,255,0.06)"/><circle cx="200" cy="280" r="0.8" fill="rgba(255,255,255,0.06)"/><circle cx="200" cy="320" r="0.8" fill="rgba(255,255,255,0.06)"/><circle cx="200" cy="360" r="0.8" fill="rgba(255,255,255,0.06)"/><circle cx="200" cy="400" r="0.8" fill="rgba(255,255,255,0.06)"/><circle cx="200" cy="440" r="0.8" fill="rgba(255,255,255,0.06)"/><circle cx="240" cy="40" r="0.8" fill="rgba(255,255,255,0.06)"/><circle cx="240" cy="80" r="0.8" fill="rgba(255,255,255,0.06)"/><circle cx="240" cy="120" r="0.8" fill="rgba(255,255,255,0.06)"/><circle cx="240" cy="160" r="0.8" fill="rgba(255,255,255,0.06)"/><circle cx="240" cy="200" r="0.8" fill="rgba(255,255,255,0.06)"/><circle cx="240" cy="240" r="0.8" fill="rgba(255,255,255,0.06)"/><circle cx="240" cy="280" r="0.8" fill="rgba(255,255,255,0.06)"/><circle cx="240" cy="320" r="0.8" fill="rgba(255,255,255,0.06)"/><circle cx="240" cy="360" r="0.8" fill="rgba(255,255,255,0.06)"/><circle cx="240" cy="400" r="0.8" fill="rgba(255,255,255,0.06)"/><circle cx="240" cy="440" r="0.8" fill="rgba(255,255,255,0.06)"/><circle cx="280" cy="40" r="0.8" fill="rgba(255,255,255,0.06)"/><circle cx="280" cy="80" r="0.8" fill="rgba(255,255,255,0.06)"/><circle cx="280" cy="120" r="0.8" fill="rgba(255,255,255,0.06)"/><circle cx="280" cy="160" r="0.8" fill="rgba(255,255,255,0.06)"/><circle cx="280" cy="200" r="0.8" fill="rgba(255,255,255,0.06)"/><circle cx="280" cy="240" r="0.8" fill="rgba(255,255,255,0.06)"/><circle cx="280" cy="280" r="0.8" fill="rgba(255,255,255,0.06)"/><circle cx="280" cy="320" r="0.8" fill="rgba(255,255,255,0.06)"/><circle cx="280" cy="360" r="0.8" fill="rgba(255,255,255,0.06)"/><circle cx="280" cy="400" r="0.8" fill="rgba(255,255,255,0.06)"/><circle cx="280" cy="440" r="0.8" fill="rgba(255,255,255,0.06)"/><circle cx="320" cy="40" r="0.8" fill="rgba(255,255,255,0.06)"/><circle cx="320" cy="80" r="0.8" fill="rgba(255,255,255,0.06)"/><circle cx="320" cy="120" r="0.8" fill="rgba(255,255,255,0.06)"/><circle cx="320" cy="160" r="0.8" fill="rgba(255,255,255,0.06)"/><circle cx="320" cy="200" r="0.8" fill="rgba(255,255,255,0.06)"/><circle cx="320" cy="240" r="0.8" fill="rgba(255,255,255,0.06)"/><circle cx="320" cy="280" r="0.8" fill="rgba(255,255,255,0.06)"/><circle cx="320" cy="320" r="0.8" fill="rgba(255,255,255,0.06)"/><circle cx="320" cy="360" r="0.8" fill="rgba(255,255,255,0.06)"/><circle cx="320" cy="400" r="0.8" fill="rgba(255,255,255,0.06)"/><circle cx="320" cy="440" r="0.8" fill="rgba(255,255,255,0.06)"/><circle cx="360" cy="40" r="0.8" fill="rgba(255,255,255,0.06)"/><circle cx="360" cy="80" r="0.8" fill="rgba(255,255,255,0.06)"/><circle cx="360" cy="120" r="0.8" fill="rgba(255,255,255,0.06)"/><circle cx="360" cy="160" r="0.8" fill="rgba(255,255,255,0.06)"/><circle cx="360" cy="200" r="0.8" fill="rgba(255,255,255,0.06)"/><circle cx="360" cy="240" r="0.8" fill="rgba(255,255,255,0.06)"/><circle cx="360" cy="280" r="0.8" fill="rgba(255,255,255,0.06)"/><circle cx="360" cy="320" r="0.8" fill="rgba(255,255,255,0.06)"/><circle cx="360" cy="360" r="0.8" fill="rgba(255,255,255,0.06)"/><circle cx="360" cy="400" r="0.8" fill="rgba(255,255,255,0.06)"/><circle cx="360" cy="440" r="0.8" fill="rgba(255,255,255,0.06)"/><circle cx="400" cy="40" r="0.8" fill="rgba(255,255,255,0.06)"/><circle cx="400" cy="80" r="0.8" fill="rgba(255,255,255,0.06)"/><circle cx="400" cy="120" r="0.8" fill="rgba(255,255,255,0.06)"/><circle cx="400" cy="160" r="0.8" fill="rgba(255,255,255,0.06)"/><circle cx="400" cy="200" r="0.8" fill="rgba(255,255,255,0.06)"/><circle cx="400" cy="240" r="0.8" fill="rgba(255,255,255,0.06)"/><circle cx="400" cy="280" r="0.8" fill="rgba(255,255,255,0.06)"/><circle cx="400" cy="320" r="0.8" fill="rgba(255,255,255,0.06)"/><circle cx="400" cy="360" r="0.8" fill="rgba(255,255,255,0.06)"/><circle cx="400" cy="400" r="0.8" fill="rgba(255,255,255,0.06)"/><circle cx="400" cy="440" r="0.8" fill="rgba(255,255,255,0.06)"/><circle cx="440" cy="40" r="0.8" fill="rgba(255,255,255,0.06)"/><circle cx="440" cy="80" r="0.8" fill="rgba(255,255,255,0.06)"/><circle cx="440" cy="120" r="0.8" fill="rgba(255,255,255,0.06)"/><circle cx="440" cy="160" r="0.8" fill="rgba(255,255,255,0.06)"/><circle cx="440" cy="200" r="0.8" fill="rgba(255,255,255,0.06)"/><circle cx="440" cy="240" r="0.8" fill="rgba(255,255,255,0.06)"/><circle cx="440" cy="280" r="0.8" fill="rgba(255,255,255,0.06)"/><circle cx="440" cy="320" r="0.8" fill="rgba(255,255,255,0.06)"/><circle cx="440" cy="360" r="0.8" fill="rgba(255,255,255,0.06)"/><circle cx="440" cy="400" r="0.8" fill="rgba(255,255,255,0.06)"/><circle cx="440" cy="440" r="0.8" fill="rgba(255,255,255,0.06)"/><circle cx="480" cy="40" r="0.8" fill="rgba(255,255,255,0.06)"/><circle cx="480" cy="80" r="0.8" fill="rgba(255,255,255,0.06)"/><circle cx="480" cy="120" r="0.8" fill="rgba(255,255,255,0.06)"/><circle cx="480" cy="160" r="0.8" fill="rgba(255,255,255,0.06)"/><circle cx="480" cy="200" r="0.8" fill="rgba(255,255,255,0.06)"/><circle cx="480" cy="240" r="0.8" fill="rgba(255,255,255,0.06)"/><circle cx="480" cy="280" r="0.8" fill="rgba(255,255,255,0.06)"/><circle cx="480" cy="320" r="0.8" fill="rgba(255,255,255,0.06)"/><circle cx="480" cy="360" r="0.8" fill="rgba(255,255,255,0.06)"/><circle cx="480" cy="400" r="0.8" fill="rgba(255,255,255,0.06)"/><circle cx="480" cy="440" r="0.8" fill="rgba(255,255,255,0.06)"/><circle cx="520" cy="40" r="0.8" fill="rgba(255,255,255,0.06)"/><circle cx="520" cy="80" r="0.8" fill="rgba(255,255,255,0.06)"/><circle cx="520" cy="120" r="0.8" fill="rgba(255,255,255,0.06)"/><circle cx="520" cy="160" r="0.8" fill="rgba(255,255,255,0.06)"/><circle cx="520" cy="200" r="0.8" fill="rgba(255,255,255,0.06)"/><circle cx="520" cy="240" r="0.8" fill="rgba(255,255,255,0.06)"/><circle cx="520" cy="280" r="0.8" fill="rgba(255,255,255,0.06)"/><circle cx="520" cy="320" r="0.8" fill="rgba(255,255,255,0.06)"/><circle cx="520" cy="360" r="0.8" fill="rgba(255,255,255,0.06)"/><circle cx="520" cy="400" r="0.8" fill="rgba(255,255,255,0.06)"/><circle cx="520" cy="440" r="0.8" fill="rgba(255,255,255,0.06)"/><circle cx="560" cy="40" r="0.8" fill="rgba(255,255,255,0.06)"/><circle cx="560" cy="80" r="0.8" fill="rgba(255,255,255,0.06)"/><circle cx="560" cy="120" r="0.8" fill="rgba(255,255,255,0.06)"/><circle cx="560" cy="160" r="0.8" fill="rgba(255,255,255,0.06)"/><circle cx="560" cy="200" r="0.8" fill="rgba(255,255,255,0.06)"/><circle cx="560" cy="240" r="0.8" fill="rgba(255,255,255,0.06)"/><circle cx="560" cy="280" r="0.8" fill="rgba(255,255,255,0.06)"/><circle cx="560" cy="320" r="0.8" fill="rgba(255,255,255,0.06)"/><circle cx="560" cy="360" r="0.8" fill="rgba(255,255,255,0.06)"/><circle cx="560" cy="400" r="0.8" fill="rgba(255,255,255,0.06)"/><circle cx="560" cy="440" r="0.8" fill="rgba(255,255,255,0.06)"/><circle cx="600" cy="40" r="0.8" fill="rgba(255,255,255,0.06)"/><circle cx="600" cy="80" r="0.8" fill="rgba(255,255,255,0.06)"/><circle cx="600" cy="120" r="0.8" fill="rgba(255,255,255,0.06)"/><circle cx="600" cy="160" r="0.8" fill="rgba(255,255,255,0.06)"/><circle cx="600" cy="200" r="0.8" fill="rgba(255,255,255,0.06)"/><circle cx="600" cy="240" r="0.8" fill="rgba(255,255,255,0.06)"/><circle cx="600" cy="280" r="0.8" fill="rgba(255,255,255,0.06)"/><circle cx="600" cy="320" r="0.8" fill="rgba(255,255,255,0.06)"/><circle cx="600" cy="360" r="0.8" fill="rgba(255,255,255,0.06)"/><circle cx="600" cy="400" r="0.8" fill="rgba(255,255,255,0.06)"/><circle cx="600" cy="440" r="0.8" fill="rgba(255,255,255,0.06)"/><circle cx="640" cy="40" r="0.8" fill="rgba(255,255,255,0.06)"/><circle cx="640" cy="80" r="0.8" fill="rgba(255,255,255,0.06)"/><circle cx="640" cy="120" r="0.8" fill="rgba(255,255,255,0.06)"/><circle cx="640" cy="160" r="0.8" fill="rgba(255,255,255,0.06)"/><circle cx="640" cy="200" r="0.8" fill="rgba(255,255,255,0.06)"/><circle cx="640" cy="240" r="0.8" fill="rgba(255,255,255,0.06)"/><circle cx="640" cy="280" r="0.8" fill="rgba(255,255,255,0.06)"/><circle cx="640" cy="320" r="0.8" fill="rgba(255,255,255,0.06)"/><circle cx="640" cy="360" r="0.8" fill="rgba(255,255,255,0.06)"/><circle cx="640" cy="400" r="0.8" fill="rgba(255,255,255,0.06)"/><circle cx="640" cy="440" r="0.8" fill="rgba(255,255,255,0.06)"/><circle cx="680" cy="40" r="0.8" fill="rgba(255,255,255,0.06)"/><circle cx="680" cy="80" r="0.8" fill="rgba(255,255,255,0.06)"/><circle cx="680" cy="120" r="0.8" fill="rgba(255,255,255,0.06)"/><circle cx="680" cy="160" r="0.8" fill="rgba(255,255,255,0.06)"/><circle cx="680" cy="200" r="0.8" fill="rgba(255,255,255,0.06)"/><circle cx="680" cy="240" r="0.8" fill="rgba(255,255,255,0.06)"/><circle cx="680" cy="280" r="0.8" fill="rgba(255,255,255,0.06)"/><circle cx="680" cy="320" r="0.8" fill="rgba(255,255,255,0.06)"/><circle cx="680" cy="360" r="0.8" fill="rgba(255,255,255,0.06)"/><circle cx="680" cy="400" r="0.8" fill="rgba(255,255,255,0.06)"/><circle cx="680" cy="440" r="0.8" fill="rgba(255,255,255,0.06)"/>

    <!-- Category-specific visual elements -->
    
      <!-- Web stack layers -->
      <g opacity="0.15" transform="translate(500, 150)">
        <rect x="0" y="0" width="140" height="28" rx="6" stroke="#3b82f6" stroke-width="1.5" fill="none"/>
        <text x="70" y="18" text-anchor="middle" font-size="10" fill="#3b82f6">React / Frontend</text>
        <rect x="0" y="36" width="140" height="28" rx="6" stroke="#10b981" stroke-width="1.5" fill="none"/>
        <text x="70" y="54" text-anchor="middle" font-size="10" fill="#10b981">Express / API</text>
        <rect x="0" y="72" width="140" height="28" rx="6" stroke="#f59e0b" stroke-width="1.5" fill="none"/>
        <text x="70" y="90" text-anchor="middle" font-size="10" fill="#f59e0b">Node.js / Server</text>
        <rect x="0" y="108" width="140" height="28" rx="6" stroke="#e879f9" stroke-width="1.5" fill="none"/>
        <text x="70" y="126" text-anchor="middle" font-size="10" fill="#e879f9">MongoDB / DB</text>
        <line x1="70" y1="28" x2="70" y2="36" stroke="rgba(255,255,255,0.3)" stroke-width="1" stroke-dasharray="3 2"/>
        <line x1="70" y1="64" x2="70" y2="72" stroke="rgba(255,255,255,0.3)" stroke-width="1" stroke-dasharray="3 2"/>
        <line x1="70" y1="100" x2="70" y2="108" stroke="rgba(255,255,255,0.3)" stroke-width="1" stroke-dasharray="3 2"/>
      </g>

    <!-- Header section -->
    <g filter="url(#softShadow)">
      <rect x="24" y="20" width="652" height="90" rx="14" fill="url(#glassCard)" stroke="rgba(255,255,255,0.1)" stroke-width="1"/>
    </g>
    <text x="56" y="52" font-family="'Segoe UI',Inter,system-ui,sans-serif" font-size="14" fill="#3b82f6" font-weight="600" letter-spacing="2">
      🌐 WEB • PLACEMENT PREP
    </text>
    <text x="56" y="82" font-family="'Segoe UI',Inter,system-ui,sans-serif" font-size="26" font-weight="700" fill="white">
      MERN Stack
    </text>
    <text x="56" y="100" font-family="'Segoe UI',Inter,system-ui,sans-serif" font-size="13" fill="rgba(255,255,255,0.6)">
      Full stack development framework
    </text>

    <!-- Accent stripe -->
    <rect x="24" y="110" width="652" height="3" rx="1.5" fill="url(#accentGrad)" opacity="0.6"/>

    <!-- Key Concepts Section -->
    <text x="40" y="140" font-family="'Segoe UI',Inter,system-ui,sans-serif" font-size="11" fill="rgba(255,255,255,0.45)" font-weight="600" letter-spacing="1.5">
      KEY CONCEPTS
    </text>
    
    <g filter="url(#softShadow)">
      <rect x="36" y="152" width="145" height="48" rx="8" fill="url(#glassCard)" stroke="#3b82f6" stroke-width="0.8" stroke-opacity="0.4"/>
    </g>
    <circle cx="54" cy="176" r="6" fill="#3b82f6" opacity="0.25"/>
    <text x="54" y="179" text-anchor="middle" font-size="8" fill="#3b82f6">✦</text>
    <text x="68" y="173" font-family="'Segoe UI',Inter,system-ui,sans-serif" font-size="10" fill="white" font-weight="600">
      MongoDB
    </text>
    <text x="68" y="188" font-family="'Segoe UI',Inter,system-ui,sans-serif" font-size="8" fill="rgba(255,255,255,0.4)">
      Concept 1
    </text>

    <g filter="url(#softShadow)">
      <rect x="189" y="152" width="145" height="48" rx="8" fill="url(#glassCard)" stroke="#06b6d4" stroke-width="0.8" stroke-opacity="0.4"/>
    </g>
    <circle cx="207" cy="176" r="6" fill="#06b6d4" opacity="0.25"/>
    <text x="207" y="179" text-anchor="middle" font-size="8" fill="#06b6d4">✦</text>
    <text x="221" y="173" font-family="'Segoe UI',Inter,system-ui,sans-serif" font-size="10" fill="white" font-weight="600">
      Express
    </text>
    <text x="221" y="188" font-family="'Segoe UI',Inter,system-ui,sans-serif" font-size="8" fill="rgba(255,255,255,0.4)">
      Concept 2
    </text>

    <g filter="url(#softShadow)">
      <rect x="342" y="152" width="145" height="48" rx="8" fill="url(#glassCard)" stroke="#10b981" stroke-width="0.8" stroke-opacity="0.4"/>
    </g>
    <circle cx="360" cy="176" r="6" fill="#10b981" opacity="0.25"/>
    <text x="360" y="179" text-anchor="middle" font-size="8" fill="#10b981">✦</text>
    <text x="374" y="173" font-family="'Segoe UI',Inter,system-ui,sans-serif" font-size="10" fill="white" font-weight="600">
      React
    </text>
    <text x="374" y="188" font-family="'Segoe UI',Inter,system-ui,sans-serif" font-size="8" fill="rgba(255,255,255,0.4)">
      Concept 3
    </text>

    <g filter="url(#softShadow)">
      <rect x="495" y="152" width="145" height="48" rx="8" fill="url(#glassCard)" stroke="#f59e0b" stroke-width="0.8" stroke-opacity="0.4"/>
    </g>
    <circle cx="513" cy="176" r="6" fill="#f59e0b" opacity="0.25"/>
    <text x="513" y="179" text-anchor="middle" font-size="8" fill="#f59e0b">✦</text>
    <text x="527" y="173" font-family="'Segoe UI',Inter,system-ui,sans-serif" font-size="10" fill="white" font-weight="600">
      Node
    </text>
    <text x="527" y="188" font-family="'Segoe UI',Inter,system-ui,sans-serif" font-size="8" fill="rgba(255,255,255,0.4)">
      Concept 4
    </text>

    <!-- Code Block -->
    
    <!-- Code snippet block -->
    <text x="40" y="225" font-family="'Segoe UI',Inter,system-ui,sans-serif" font-size="11" fill="rgba(255,255,255,0.45)" font-weight="600" letter-spacing="1.5">
      CODE SNIPPET
    </text>
    <g filter="url(#softShadow)">
      <rect x="36" y="234" width="628" height="114" rx="8" fill="rgba(0,0,0,0.4)" stroke="#3b82f6" stroke-width="0.6" stroke-opacity="0.3"/>
    </g>
    <!-- Terminal dots -->
    <circle cx="50" cy="246" r="3.5" fill="#ff5f57"/>
    <circle cx="62" cy="246" r="3.5" fill="#febc2e"/>
    <circle cx="74" cy="246" r="3.5" fill="#28c840"/>
    <text x="100" y="249" font-family="'Cascadia Code',monospace" font-size="8" fill="rgba(255,255,255,0.3)">code.js</text>
    <line x1="36" y1="256" x2="664" y2="256" stroke="rgba(255,255,255,0.08)" stroke-width="0.5"/>
    <!-- Line numbers -->
    <text x="46" y="274" font-family="'Cascadia Code',monospace" font-size="9" fill="rgba(255,255,255,0.2)">1</text>
    <text x="46" y="292" font-family="'Cascadia Code',monospace" font-size="9" fill="rgba(255,255,255,0.2)">2</text>
    <text x="46" y="310" font-family="'Cascadia Code',monospace" font-size="9" fill="rgba(255,255,255,0.2)">3</text>
    <text x="46" y="328" font-family="'Cascadia Code',monospace" font-size="9" fill="rgba(255,255,255,0.2)">4</text>
    <text x="46" y="346" font-family="'Cascadia Code',monospace" font-size="9" fill="rgba(255,255,255,0.2)">5</text>
    <!-- Code content -->
    <text x="64" y="274" font-family="'Cascadia Code','Fira Code',monospace" font-size="11" fill="#06b6d4">const express = require(&apos;</text>
    <text x="64" y="292" font-family="'Cascadia Code','Fira Code',monospace" font-size="11" fill="#06b6d4">express&apos;</text>
    <text x="64" y="310" font-family="'Cascadia Code','Fira Code',monospace" font-size="11" fill="#06b6d4">);</text>
    <text x="64" y="328" font-family="'Cascadia Code','Fira Code',monospace" font-size="11" fill="#06b6d4">const app = express();</text>
    <text x="64" y="346" font-family="'Cascadia Code','Fira Code',monospace" font-size="11" fill="#06b6d4">app.listen(3000);</text>

    <!-- Interview Tip -->
    
    <!-- Interview Tip -->
    <g filter="url(#softShadow)">
      <rect x="36" y="380" width="628" height="48" rx="10" fill="rgba(251,191,36,0.06)" stroke="rgba(251,191,36,0.2)" stroke-width="1"/>
    </g>
    <text x="56" y="400" font-family="'Segoe UI',Inter,system-ui,sans-serif" font-size="11" fill="#fbbf24" font-weight="700">
      💡 INTERVIEW TIP
    </text>
    <text x="56" y="418" font-family="'Segoe UI',Inter,system-ui,sans-serif" font-size="11" fill="rgba(255,255,255,0.65)">
      Know MongoDB schema design
    </text>

    <!-- Footer -->
    <rect x="24" y="440" width="652" height="28" rx="8" fill="rgba(255,255,255,0.04)"/>
    <text x="350" y="459" text-anchor="middle" font-family="'Segoe UI',Inter,system-ui,sans-serif" font-size="10" fill="rgba(255,255,255,0.3)" letter-spacing="1">
      CANTILEVER AI TUTOR • POWERED BY LANGGRAPH + GROQ + LLAMA 3.3
    </text>
  </g>
</svg>